<svg data-v-423bf9ae="" xmlns="http://www.w3.org/2000/svg" viewBox="0 0 190.53168213151844 163" class="iconAbove"><!----><!----><!----><g data-v-423bf9ae="" id="74a3eb1d-aede-4496-a161-f6ceb45a87e7" fill="black" transform="matrix(4.369992862376109,0,0,4.369992862376109,-1.8790958881166517,89.58412435000105)"><path d="M4.09 14.78L3.92 14.78L3.57 14.15L3.57 14.15Q3.40 14.49 3.02 14.67L3.02 14.67L3.02 14.67Q2.65 14.84 2.17 14.84L2.17 14.84L2.17 14.84Q1.79 14.84 1.48 14.74L1.48 14.74L1.48 14.74Q1.16 14.64 0.93 14.41L0.93 14.41L0.93 14.41Q0.70 14.18 0.57 13.80L0.57 13.80L0.57 13.80Q0.43 13.43 0.43 12.88L0.43 12.88L0.43 5.04L0.43 5.04Q0.43 4.07 0.88 3.57L0.88 3.57L0.88 3.57Q1.33 3.07 2.25 3.07L2.25 3.07L2.25 3.07Q3.18 3.07 3.59 3.57L3.59 3.57L3.59 3.57Q4.00 4.07 4.00 5.04L4.00 5.04L4.00 7.07L3.05 7.07L3.05 5.04L3.05 5.04Q3.05 4.59 2.87 4.37L2.87 4.37L2.87 4.37Q2.69 4.14 2.25 4.14L2.25 4.14L2.25 4.14Q1.85 4.14 1.67 4.37L1.67 4.37L1.67 4.37Q1.50 4.59 1.50 5.04L1.50 5.04L1.50 12.88L1.50 12.88Q1.50 13.33 1.71 13.56L1.71 13.56L1.71 13.56Q1.92 13.79 2.24 13.79L2.24 13.79L2.24 13.79Q3.00 13.79 3.07 12.96L3.07 12.96L3.07 10.35L2.18 10.35L2.18 9.34L4.09 9.34L4.09 14.78ZM8.05 14.71L7.17 14.71L7.17 14.71Q7.11 14.53 7.11 14.20L7.11 14.20L7.11 14.20Q6.76 14.84 6.08 14.84L6.08 14.84L6.08 14.84Q5.49 14.84 5.16 14.52L5.16 14.52L5.16 14.52Q4.83 14.20 4.83 13.47L4.83 13.47L4.83 12.19L4.83 12.19Q4.83 11.56 5.00 11.14L5.00 11.14L5.00 11.14Q5.18 10.71 5.48 10.42L5.48 10.42L5.48 10.42Q5.78 10.12 6.19 9.92L6.19 9.92L6.19 9.92Q6.59 9.72 7.06 9.52L7.06 9.52L7.06 7.63L7.06 7.63Q7.06 7.27 6.92 7.07L6.92 7.07L6.92 7.07Q6.79 6.87 6.43 6.87L6.43 6.87L6.43 6.87Q6.05 6.87 5.92 7.07L5.92 7.07L5.92 7.07Q5.80 7.27 5.80 7.63L5.80 7.63L5.80 9.45L4.94 9.45L4.94 7.62L4.94 7.62Q4.94 6.76 5.30 6.34L5.30 6.34L5.30 6.34Q5.66 5.91 6.45 5.91L6.45 5.91L6.45 5.91Q7.98 5.91 7.98 7.62L7.98 7.62L7.98 13.72L7.98 13.72Q7.98 14.03 7.99 14.29L7.99 14.29L7.99 14.29Q8.01 14.56 8.05 14.71L8.05 14.71ZM7.06 13.36L7.06 10.29L7.06 10.29Q6.64 10.44 6.38 10.63L6.38 10.63L6.38 10.63Q6.12 10.81 5.99 11.04L5.99 11.04L5.99 11.04Q5.85 11.27 5.81 11.57L5.81 11.57L5.81 11.57Q5.77 11.87 5.77 12.26L5.77 12.26L5.77 13.19L5.77 13.19Q5.77 13.90 6.43 13.90L6.43 13.90L6.43 13.90Q6.64 13.90 6.81 13.78L6.81 13.78L6.81 13.78Q6.99 13.65 7.06 13.36L7.06 13.36ZM10.00 4.94L9.03 4.94L9.03 3.19L10.00 3.19L10.00 4.94ZM10.00 14.71L9.03 14.71L9.03 6.05L10.00 6.05L10.00 14.71ZM14.08 14.71L13.20 14.71L13.20 14.71Q13.15 14.53 13.15 14.20L13.15 14.20L13.15 14.20Q12.80 14.84 12.11 14.84L12.11 14.84L12.11 14.84Q11.52 14.84 11.19 14.52L11.19 14.52L11.19 14.52Q10.86 14.20 10.86 13.47L10.86 13.47L10.86 12.19L10.86 12.19Q10.86 11.56 11.04 11.14L11.04 11.14L11.04 11.14Q11.21 10.71 11.52 10.42L11.52 10.42L11.52 10.42Q11.82 10.12 12.22 9.92L12.22 9.92L12.22 9.92Q12.63 9.72 13.09 9.52L13.09 9.52L13.09 7.63L13.09 7.63Q13.09 7.27 12.96 7.07L12.96 7.07L12.96 7.07Q12.82 6.87 12.46 6.87L12.46 6.87L12.46 6.87Q12.08 6.87 11.96 7.07L11.96 7.07L11.96 7.07Q11.83 7.27 11.83 7.63L11.83 7.63L11.83 9.45L10.98 9.45L10.98 7.62L10.98 7.62Q10.98 6.76 11.33 6.34L11.33 6.34L11.33 6.34Q11.69 5.91 12.49 5.91L12.49 5.91L12.49 5.91Q14.01 5.91 14.01 7.62L14.01 7.62L14.01 13.72L14.01 13.72Q14.01 14.03 14.03 14.29L14.03 14.29L14.03 14.29Q14.04 14.56 14.08 14.71L14.08 14.71ZM13.09 13.36L13.09 10.29L13.09 10.29Q12.67 10.44 12.41 10.63L12.41 10.63L12.41 10.63Q12.15 10.81 12.02 11.04L12.02 11.04L12.02 11.04Q11.89 11.27 11.84 11.57L11.84 11.57L11.84 11.57Q11.80 11.87 11.80 12.26L11.80 12.26L11.80 13.19L11.80 13.19Q11.80 13.90 12.46 13.90L12.46 13.90L12.46 13.90Q12.67 13.90 12.84 13.78L12.84 13.78L12.84 13.78Q13.02 13.65 13.09 13.36L13.09 13.36ZM15.18 6.38L14.62 6.38L14.41 4.44L14.41 3.19L15.39 3.19L15.39 4.44L15.18 6.38ZM17.81 13.20L17.81 12.21L17.81 12.21Q17.81 11.93 17.73 11.73L17.73 11.73L17.73 11.73Q17.65 11.52 17.39 11.20L17.39 11.20L17.39 11.20Q17.09 10.85 16.73 10.54L16.73 10.54L16.73 10.54Q16.37 10.22 16.10 9.90L16.10 9.90L16.10 9.90Q15.82 9.59 15.74 9.28L15.74 9.28L15.74 9.28Q15.65 8.97 15.65 8.47L15.65 8.47L15.65 7.57L15.65 7.57Q15.65 6.68 16.04 6.29L16.04 6.29L16.04 6.29Q16.44 5.91 17.19 5.91L17.19 5.91L17.19 5.91Q18.07 5.91 18.40 6.30L18.40 6.30L18.40 6.30Q18.73 6.69 18.73 7.57L18.73 7.57L18.73 8.99L17.85 8.99L17.85 7.57L17.85 7.57Q17.85 7.25 17.67 7.06L17.67 7.06L17.67 7.06Q17.49 6.87 17.22 6.87L17.22 6.87L17.22 6.87Q16.59 6.87 16.59 7.57L16.59 7.57L16.59 8.60L16.59 8.60Q16.59 8.90 16.67 9.08L16.67 9.08L16.67 9.08Q16.74 9.25 16.98 9.51L16.98 9.51L16.98 9.51Q17.26 9.81 17.61 10.09L17.61 10.09L17.61 10.09Q17.96 10.37 18.23 10.68L18.23 10.68L18.23 10.68Q18.55 11.06 18.66 11.42L18.66 11.42L18.66 11.42Q18.77 11.77 18.77 12.33L18.77 12.33L18.77 13.27L18.77 13.27Q18.77 14.11 18.38 14.48L18.38 14.48L18.38 14.48Q17.98 14.84 17.16 14.84L17.16 14.84L17.16 14.84Q15.65 14.84 15.65 13.23L15.65 13.23L15.65 11.82L16.52 11.82L16.52 13.20L16.52 13.20Q16.52 13.52 16.71 13.71L16.71 13.71L16.71 13.71Q16.90 13.90 17.18 13.90L17.18 13.90L17.18 13.90Q17.81 13.90 17.81 13.20L17.81 13.20ZM23.86 15.20L23.86 13.76L23.86 13.76Q23.70 14.01 23.42 14.16L23.42 14.16L23.42 14.16Q23.13 14.31 22.76 14.31L22.76 14.31L22.76 14.31Q22.09 14.31 21.80 13.94L21.80 13.94L21.80 13.94Q21.50 13.58 21.50 12.73L21.50 12.73L21.50 7.59L21.50 7.59Q21.50 6.75 21.82 6.36L21.82 6.36L21.82 6.36Q22.13 5.96 22.74 5.96L22.74 5.96L22.74 5.96Q23.18 5.96 23.47 6.15L23.47 6.15L23.47 6.15Q23.76 6.34 23.94 6.71L23.94 6.71L23.94 6.71Q23.94 6.54 23.95 6.37L23.95 6.37L23.95 6.37Q23.95 6.20 23.97 6.05L23.97 6.05L24.78 6.05L24.78 15.16L24.78 15.16Q24.78 15.96 24.40 16.38L24.40 16.38L24.40 16.38Q24.01 16.80 23.20 16.80L23.20 16.80L23.20 16.80Q22.75 16.80 22.44 16.69L22.44 16.69L22.44 16.69Q22.13 16.58 21.95 16.37L21.95 16.37L21.95 16.37Q21.77 16.16 21.69 15.86L21.69 15.86L21.69 15.86Q21.62 15.55 21.62 15.16L21.62 15.16L21.62 14.81L22.48 14.81L22.48 15.20L22.48 15.20Q22.48 15.96 23.18 15.96L23.18 15.96L23.18 15.96Q23.86 15.96 23.86 15.20L23.86 15.20ZM23.86 12.82L23.86 7.56L23.86 7.56Q23.74 7.28 23.53 7.13L23.53 7.13L23.53 7.13Q23.32 6.99 23.07 6.99L23.07 6.99L23.07 6.99Q22.71 6.99 22.58 7.16L22.58 7.16L22.58 7.16Q22.46 7.34 22.46 7.64L22.46 7.64L22.46 12.70L22.46 12.70Q22.46 13.06 22.59 13.22L22.59 13.22L22.59 13.22Q22.72 13.38 23.07 13.38L23.07 13.38L23.07 13.38Q23.32 13.38 23.53 13.24L23.53 13.24L23.53 13.24Q23.74 13.10 23.86 12.82L23.86 12.82ZM28.85 14.71L27.97 14.71L27.97 14.71Q27.92 14.53 27.92 14.20L27.92 14.20L27.92 14.20Q27.57 14.84 26.88 14.84L26.88 14.84L26.88 14.84Q26.29 14.84 25.96 14.52L25.96 14.52L25.96 14.52Q25.63 14.20 25.63 13.47L25.63 13.47L25.63 12.19L25.63 12.19Q25.63 11.56 25.81 11.14L25.81 11.14L25.81 11.14Q25.98 10.71 26.29 10.42L26.29 10.42L26.29 10.42Q26.59 10.12 26.99 9.92L26.99 9.92L26.99 9.92Q27.40 9.72 27.86 9.52L27.86 9.52L27.86 7.63L27.86 7.63Q27.86 7.27 27.73 7.07L27.73 7.07L27.73 7.07Q27.59 6.87 27.23 6.87L27.23 6.87L27.23 6.87Q26.85 6.87 26.73 7.07L26.73 7.07L26.73 7.07Q26.60 7.27 26.60 7.63L26.60 7.63L26.60 9.45L25.75 9.45L25.75 7.62L25.75 7.62Q25.75 6.76 26.10 6.34L26.10 6.34L26.10 6.34Q26.46 5.91 27.26 5.91L27.26 5.91L27.26 5.91Q28.78 5.91 28.78 7.62L28.78 7.62L28.78 13.72L28.78 13.72Q28.78 14.03 28.80 14.29L28.80 14.29L28.80 14.29Q28.81 14.56 28.85 14.71L28.85 14.71ZM27.86 13.36L27.86 10.29L27.86 10.29Q27.44 10.44 27.18 10.63L27.18 10.63L27.18 10.63Q26.92 10.81 26.79 11.04L26.79 11.04L26.79 11.04Q26.66 11.27 26.61 11.57L26.61 11.57L26.61 11.57Q26.57 11.87 26.57 12.26L26.57 12.26L26.57 13.19L26.57 13.19Q26.57 13.90 27.23 13.90L27.23 13.90L27.23 13.90Q27.44 13.90 27.62 13.78L27.62 13.78L27.62 13.78Q27.79 13.65 27.86 13.36L27.86 13.36ZM30.77 14.71L29.81 14.71L29.81 6.05L30.62 6.05L30.62 6.05Q30.66 6.37 30.66 6.68L30.66 6.68L30.66 6.68Q30.84 6.30 31.10 6.13L31.10 6.13L31.10 6.13Q31.36 5.96 31.71 5.96L31.71 5.96L31.71 5.96Q31.89 5.96 32.00 6.02L32.00 6.02L32.00 7.10L32.00 7.10Q31.93 7.04 31.81 7.02L31.81 7.02L31.81 7.02Q31.68 7 31.57 7L31.57 7L31.57 7Q31.35 7 31.13 7.11L31.13 7.11L31.13 7.11Q30.91 7.21 30.77 7.52L30.77 7.52L30.77 14.71ZM34.94 13.22L34.94 7.46L34.94 7.46Q34.71 6.89 34.19 6.89L34.19 6.89L34.19 6.89Q33.87 6.89 33.73 7.05L33.73 7.05L33.73 7.05Q33.59 7.21 33.59 7.60L33.59 7.60L33.59 13.06L33.59 13.06Q33.59 13.47 33.73 13.63L33.73 13.63L33.73 13.63Q33.87 13.79 34.19 13.79L34.19 13.79L34.19 13.79Q34.71 13.79 34.94 13.22L34.94 13.22ZM35.90 14.71L35.08 14.71L35.08 14.71Q35.07 14.56 35.06 14.40L35.06 14.40L35.06 14.40Q35.06 14.24 35.06 14.07L35.06 14.07L35.06 14.07Q34.90 14.42 34.62 14.62L34.62 14.62L34.62 14.62Q34.33 14.81 33.85 14.81L33.85 14.81L33.85 14.81Q32.62 14.81 32.62 13.19L32.62 13.19L32.62 7.50L32.62 7.50Q32.62 6.65 32.92 6.28L32.92 6.28L32.92 6.28Q33.22 5.91 33.89 5.91L33.89 5.91L33.89 5.91Q34.23 5.91 34.50 6.06L34.50 6.06L34.50 6.06Q34.78 6.22 34.94 6.47L34.94 6.47L34.94 3.19L35.90 3.19L35.90 14.71ZM38.93 9.77L38.93 7.69L38.93 7.69Q38.93 6.92 38.29 6.92L38.29 6.92L38.29 6.92Q37.69 6.92 37.69 7.69L37.69 7.69L37.69 9.77L38.93 9.77ZM38.93 13.09L38.93 11.19L39.84 11.19L39.84 13.09L39.84 13.09Q39.84 14.84 38.29 14.84L38.29 14.84L38.29 14.84Q36.79 14.84 36.79 13.09L36.79 13.09L36.79 7.69L36.79 7.69Q36.79 6.80 37.18 6.36L37.18 6.36L37.18 6.36Q37.56 5.91 38.29 5.91L38.29 5.91L38.29 5.91Q39.84 5.91 39.84 7.69L39.84 7.69L39.84 10.47L37.69 10.47L37.69 13.09L37.69 13.09Q37.69 13.86 38.29 13.86L38.29 13.86L38.29 13.86Q38.93 13.86 38.93 13.09L38.93 13.09ZM44.03 14.71L43.06 14.71L43.06 7.56L43.06 7.56Q43.06 7.18 42.94 7.02L42.94 7.02L42.94 7.02Q42.81 6.86 42.50 6.86L42.50 6.86L42.50 6.86Q42.29 6.86 42.08 6.99L42.08 6.99L42.08 6.99Q41.87 7.11 41.76 7.39L41.76 7.39L41.76 14.71L40.80 14.71L40.80 6.05L41.61 6.05L41.61 6.05Q41.65 6.37 41.65 6.71L41.65 6.71L41.65 6.71Q41.85 6.34 42.17 6.13L42.17 6.13L42.17 6.13Q42.49 5.91 42.90 5.91L42.90 5.91L42.90 5.91Q43.48 5.91 43.76 6.29L43.76 6.29L43.76 6.29Q44.03 6.66 44.03 7.50L44.03 7.50L44.03 14.71Z"></path></g><!----><g data-v-423bf9ae="" id="f26e89f1-7ce6-488d-b911-4b7972e49cee" transform="matrix(2.8125,0,0,2.8125,51,0)" stroke="none" fill="black"><path d="M9.571 20.464l8.064 4.47 8.065-4.47v-8.939l-8.065-4.469-8.064 4.469z"></path><path d="M32 0H0v32h32l-5.054-5.172H5.054V5.172h21.892z"></path></g><!----></svg>